<?xml version="1.0" encoding="utf-8"?>
<!-- Generator: Adobe Illustrator 24.0.1, SVG Export Plug-In . SVG Version: 6.00 Build 0)  -->
<svg version="1.1" id="Layer_1" xmlns="http://www.w3.org/2000/svg" xmlns:xlink="http://www.w3.org/1999/xlink" x="0px" y="0px"
	 viewBox="0 0 1000 131.4" style="enable-background:new 0 0 1000 131.4;" xml:space="preserve">
<style type="text/css">
	.st0{fill:#FFFFFF;}
	.st1{fill:#333333;}
	.st2{fill:#2879FE;}
</style>
<path class="st0" d="M461.6,84.7c-3,0.2-5.5,0.3-7.4,0.4l-5.7,0.2c-1.9,0.1-3.6,0.1-5.4,0.1c-1.7,0-3.3,0-4.7,0
	c-1.4,0-1.8-0.5-1.9-0.7c-0.3-0.5-0.3-1.2,0.1-2.3l11.6-30.9c1.3-3.3,3.5-4.9,7-4.9l0,0l33.7,0.1l6.1-16.3l-38.8-0.1
	c-7.5,0-13.5,1.6-18.1,4.8s-8.3,8.4-10.9,15.4l-11.6,30.9c-2.6,6.8-2.7,11.8-0.4,15.2c2.3,3.4,7,5.1,14.2,5.1c0.2,0,0.4,0,0.5,0
	c9.9,0,22.8-0.6,38.2-1.8l0.9-0.1l6-15.8l-2.1,0.1C468.4,84.3,464.6,84.5,461.6,84.7z"/>
<polygon class="st0" points="541.5,73.4 547.6,57.1 517.4,57.1 521.3,46.8 559.6,46.9 565.8,30.6 506,30.5 479.6,100.8 539.3,100.9 
	545.4,84.7 507.1,84.6 511.3,73.3 "/>
<polygon class="st0" points="606.7,67.9 598.1,30.7 576.6,30.6 550.2,101 571.5,101 585.5,63.9 594,101.1 615.5,101.1 642,30.8 
	620.6,30.8 "/>
<polygon class="st0" points="716.2,31 651.8,30.8 645.7,47.1 667.2,47.1 646.9,101.2 668.2,101.2 688.6,47.2 710.1,47.2 "/>
<path class="st0" d="M785,36.3c-2.4-3.5-7.3-5.2-15-5.2L726,31l-26.5,70.3h21.4l7.6-20.3h12.2l4.1,20.3l22.8,0.1l-4.9-21.6
	c4.1-1.1,7.6-3.1,10.5-5.9c3.1-3.1,5.7-7.4,7.8-12.9l3.3-8.7C787.2,45,787.4,39.8,785,36.3z M741.3,47.3h19.5c1.5,0,2.5,0.3,2.9,0.9
	c0.4,0.6,0.3,1.6-0.2,3.1l-3.3,8.7c-1.3,3.3-3.5,4.9-7,4.9l0,0h-18.5L741.3,47.3z"/>
<path class="st0" d="M851.4,31.3l-18.9,50.1c-1.3,3.3-3.5,4.9-7,4.9l0,0h-15.3c-1.5,0-2.5-0.3-2.9-0.9s-0.3-1.6,0.2-3.1l19.2-51.1
	h-21.4l-18.9,50.1c-2.7,7.3-2.9,12.5-0.5,16s7.3,5.2,15,5.2l23.5,0.1h0.1c7.4,0,13.4-1.6,18-4.8c4.6-3.2,8.3-8.4,10.9-15.4
	l19.2-51.1L851.4,31.3z"/>
<polygon class="st0" points="948.4,31.5 916,65.7 909.2,31.4 887.7,31.4 861.2,101.7 882.6,101.7 895.4,67.6 899.9,88.2 916,88.3 
	935.2,68.5 922.6,101.8 944,101.9 970.4,31.5 "/>
<g>
	<g>
		<g>
			<g>
				<path class="st0" d="M176.8,49c2.4-6.3,2.4-11.1,0-14.4c-2.4-3.3-7-4.9-14.2-4.9l-41.9-0.1L94.2,100l46,0.1h0.1
					c6.9,0,12.6-1.6,17.1-4.7s8-8,10.4-14.5c1-2.8,1.6-5.3,1.7-7.4c0.1-4.8-1.7-8.4-5.2-10.5c2-1,4-2.4,5.8-4
					C173,56.4,175.2,53.1,176.8,49z M145.3,73c1.5,0,2.5,0.3,2.9,0.9s0.3,1.6-0.2,3.1l-0.7,1.9c-1.3,3.3-3.5,4.9-7,4.9l0,0h-18.5
					l4-10.8H145.3z M147.3,56.7L147.3,56.7h-15.4l4-10.8h16.4c1.5,0,2.5,0.3,2.9,0.9c0.4,0.6,0.3,1.6-0.2,3.1l-0.7,1.9
					C153.1,55.2,150.8,56.7,147.3,56.7z"/>
			</g>
		</g>
		<g>
			<g>
				<path class="st0" d="M259.3,34.2c-2.4-3.5-7.3-5.2-15-5.2l-25.6-0.1h-0.1c-7.4,0-13.4,1.6-18,4.8s-8.3,8.4-10.9,15.4L178.1,80
					c-2.7,7.3-2.9,12.5-0.5,16s7.3,5.2,15,5.2l25.6,0.1h0.1c7.4,0,13.4-1.6,18-4.8c4.6-3.2,8.3-8.4,10.9-15.4l11.6-30.9
					C261.5,42.9,261.7,37.7,259.3,34.2z M219.2,84.9C219.1,84.9,219.1,84.9,219.2,84.9h-17.4c-1.5,0-2.5-0.3-2.9-0.9
					s-0.3-1.6,0.2-3.1L210.7,50c1.3-3.3,3.5-4.9,7-4.9l0,0h17.4c1.5,0,2.5,0.3,2.9,0.9c0.4,0.6,0.3,1.6-0.2,3.1L226.1,80
					C224.9,83.4,222.7,84.9,219.2,84.9z"/>
			</g>
		</g>
		<g>
			<g>
				<path class="st0" d="M320.1,30.1L279.3,30l-26.5,70.3l41.9,0.1h0.1c7.9,0,14.8-2,20.4-5.9s9.9-9.7,12.7-17.2l8.7-23.2
					c2.9-7.7,2.9-13.7,0.1-17.8C333.9,32.2,328.3,30.1,320.1,30.1z M295.8,84.1C295.7,84.1,295.7,84.1,295.8,84.1h-15.4l14.2-37.8
					H311c1.8,0,4.1,0.3,4.9,1.6c0.9,1.3,0.3,3.6-0.3,5.3l-8.7,23.2C304.9,81.6,301.3,84.1,295.8,84.1z"/>
			</g>
		</g>
		<g>
			<polygon class="st0" points="401.9,30.3 374.2,61.3 369.9,30.2 347.7,30.1 356.3,81.2 349,100.5 370.4,100.6 377.3,82.1 
				425.1,30.3 			"/>
		</g>
		<g>
			<polygon class="st0" points="82.8,100.2 61.3,100.1 88.9,29.5 110.4,29.6 			"/>
		</g>
		<g>
			<polygon class="st0" points="51.1,100.2 29.6,100.1 57.1,29.5 78.7,29.6 			"/>
		</g>
	</g>
</g>
</svg>
